<svg xmlns="http://www.w3.org/2000/svg" version="1.1" xmlns:xlink="http://www.w3.org/1999/xlink" xmlns:svgjs="http://svgjs.dev/svgjs" width="2000" height="363" viewBox="0 0 2000 363"><g transform="matrix(1,0,0,1,-1.2120543185568522,0.16115870762422446)"><svg viewBox="0 0 396 72" data-background-color="#0c1d36" preserveAspectRatio="xMidYMid meet" height="363" width="2000" xmlns="http://www.w3.org/2000/svg" xmlns:xlink="http://www.w3.org/1999/xlink"><defs></defs><g id="tight-bounds" transform="matrix(1,0,0,1,0.2399867550742556,-0.03196536349571488)"><svg viewBox="0 0 395.52 72.06393072699146" height="72.06393072699146" width="395.52"><g><svg viewBox="0 0 468.06302029533026 85.28130327272724" height="72.06393072699146" width="395.52"><g><rect width="7.096622275560061" height="85.28130327272724" x="46.868852795791085" y="0" fill="#ffffff" opacity="1" stroke-width="0" stroke="transparent" fill-opacity="1" class="rect-o-0" data-fill-palette-color="primary" rx="1%" id="o-0" data-palette-color="#f9cc0b"></rect></g><g transform="matrix(1,0,0,1,72.54302029533036,0.21214254545454025)"><svg viewBox="0 0 395.5199999999999 84.85701818181816" height="84.85701818181816" width="395.5199999999999"><g><svg viewBox="0 0 395.5199999999999 84.85701818181816" height="84.85701818181816" width="395.5199999999999"><g><svg viewBox="0 0 395.5199999999999 84.85701818181816" height="84.85701818181816" width="395.5199999999999"><g transform="matrix(1,0,0,1,0,0)"><svg width="395.5199999999999" viewBox="0.10000000149011612 -36.650001525878906 192.49998474121094 38.30000305175781" height="84.85701818181816" data-palette-color="#f9cc0b"><svg></svg><g class="undefined-text-0" data-fill-palette-color="primary" id="text-0"><path d="M0.1-36.25h5.4c0.233 0.567 0.617 1.49 1.15 2.77 0.533 1.287 1.14 2.747 1.82 4.38 0.687 1.633 1.407 3.367 2.16 5.2 0.747 1.833 1.453 3.567 2.12 5.2 0.667 1.633 1.267 3.09 1.8 4.37 0.533 1.287 0.917 2.213 1.15 2.78v0c0.033 0.067 0.117 0.3 0.25 0.7 0.133 0.4 0.233 0.75 0.3 1.05v0l0.5-1.75c0.233-0.567 0.617-1.493 1.15-2.78 0.533-1.28 1.133-2.737 1.8-4.37 0.667-1.633 1.377-3.367 2.13-5.2 0.747-1.833 1.463-3.567 2.15-5.2 0.68-1.633 1.287-3.093 1.82-4.38 0.533-1.28 0.917-2.203 1.15-2.77v0h5.4c-0.2 0.467-0.557 1.307-1.07 2.52-0.52 1.22-1.147 2.697-1.88 4.43-0.733 1.733-1.54 3.633-2.42 5.7-0.887 2.067-1.787 4.167-2.7 6.3-0.92 2.133-1.82 4.233-2.7 6.3-0.887 2.067-1.687 3.967-2.4 5.7-0.72 1.733-1.34 3.207-1.86 4.42-0.513 1.22-0.87 2.063-1.07 2.53v0zM36.9 0v-36.25h5.45v36.25zM51.25 0v-36.25h9.1c3.667 0 6.767 0.55 9.3 1.65 2.533 1.1 4.593 2.54 6.18 4.32 1.58 1.787 2.73 3.787 3.45 6 0.713 2.22 1.07 4.43 1.07 6.63v0c0 2.7-0.483 5.14-1.45 7.32-0.967 2.187-2.283 4.047-3.95 5.58-1.667 1.533-3.6 2.707-5.8 3.52-2.2 0.82-4.533 1.23-7 1.23v0zM56.7-5.2h4.65c1.933 0 3.727-0.283 5.38-0.85 1.647-0.567 3.08-1.393 4.3-2.48 1.213-1.08 2.163-2.413 2.85-4 0.68-1.58 1.02-3.403 1.02-5.47v0c0-2.2-0.383-4.117-1.15-5.75-0.767-1.633-1.767-2.993-3-4.08-1.233-1.08-2.623-1.88-4.17-2.4-1.553-0.513-3.13-0.77-4.73-0.77v0h-5.15zM86.8 0v-36.25h9.1c3.667 0 6.767 0.55 9.3 1.65 2.533 1.1 4.593 2.54 6.18 4.32 1.58 1.787 2.73 3.787 3.45 6 0.713 2.22 1.07 4.43 1.07 6.63v0c0 2.7-0.483 5.14-1.45 7.32-0.967 2.187-2.283 4.047-3.95 5.58-1.667 1.533-3.6 2.707-5.8 3.52-2.2 0.82-4.533 1.23-7 1.23v0zM92.25-5.2h4.65c1.933 0 3.727-0.283 5.38-0.85 1.647-0.567 3.08-1.393 4.3-2.48 1.213-1.08 2.163-2.413 2.85-4 0.68-1.58 1.02-3.403 1.02-5.47v0c0-2.2-0.383-4.117-1.15-5.75-0.767-1.633-1.767-2.993-3-4.08-1.233-1.08-2.623-1.88-4.17-2.4-1.553-0.513-3.13-0.77-4.73-0.77v0h-5.15zM135.75 0.4v0c-1.933 0-3.733-0.317-5.4-0.95-1.667-0.633-3.123-1.527-4.37-2.68-1.253-1.147-2.237-2.53-2.95-4.15-0.72-1.613-1.08-3.42-1.08-5.42v0-23.45h5.5v23.3c0 1.167 0.21 2.24 0.63 3.22 0.413 0.987 0.997 1.853 1.75 2.6 0.747 0.753 1.62 1.337 2.62 1.75 1 0.42 2.1 0.63 3.3 0.63v0c1.167 0 2.26-0.21 3.28-0.63 1.013-0.413 1.897-0.997 2.65-1.75 0.747-0.747 1.337-1.613 1.77-2.6 0.433-0.98 0.65-2.053 0.65-3.22v0-23.3h5.5v23.45c0 2-0.357 3.807-1.07 5.42-0.72 1.62-1.703 3.003-2.95 4.15-1.253 1.153-2.72 2.047-4.4 2.68-1.687 0.633-3.497 0.95-5.43 0.95zM155.55-18.1v0c0-2.5 0.483-4.877 1.45-7.13 0.967-2.247 2.29-4.22 3.97-5.92 1.687-1.7 3.647-3.043 5.88-4.03 2.233-0.98 4.633-1.47 7.2-1.47v0c2.533 0 4.927 0.49 7.18 1.47 2.247 0.987 4.213 2.33 5.9 4.03 1.68 1.7 3.013 3.673 4 5.92 0.98 2.253 1.47 4.63 1.47 7.13v0c0 2.567-0.49 4.967-1.47 7.2-0.987 2.233-2.32 4.19-4 5.87-1.687 1.687-3.653 3.013-5.9 3.98-2.253 0.967-4.647 1.45-7.18 1.45v0c-2.567 0-4.967-0.483-7.2-1.45-2.233-0.967-4.193-2.293-5.88-3.98-1.68-1.68-3.003-3.637-3.97-5.87-0.967-2.233-1.45-4.633-1.45-7.2zM161-18.05v0c0 1.833 0.343 3.557 1.03 5.17 0.68 1.62 1.62 3.03 2.82 4.23 1.2 1.2 2.6 2.15 4.2 2.85 1.6 0.7 3.3 1.05 5.1 1.05v0c1.8 0 3.493-0.35 5.08-1.05 1.58-0.7 2.963-1.65 4.15-2.85 1.18-1.2 2.113-2.61 2.8-4.23 0.68-1.613 1.02-3.353 1.02-5.22v0c0-1.833-0.34-3.56-1.02-5.18-0.687-1.613-1.63-3.02-2.83-4.22-1.2-1.2-2.59-2.15-4.17-2.85-1.587-0.7-3.28-1.05-5.08-1.05v0c-1.8 0-3.5 0.35-5.1 1.05-1.6 0.7-2.99 1.65-4.17 2.85-1.187 1.2-2.12 2.617-2.8 4.25-0.687 1.633-1.03 3.367-1.03 5.2z" data-fill-palette-color="primary" fill="#ffffff" opacity="1"></path></g></svg></g></svg></g></svg></g></svg></g><g transform="matrix(1,0,0,1,0,0.21214254545454025)"><svg viewBox="0 0 28.291307571811863 84.85701818181816" height="84.85701818181816" width="28.291307571811863"><g><svg xmlns="http://www.w3.org/2000/svg" xmlns:xlink="http://www.w3.org/1999/xlink" version="1.1" x="0" y="0" viewBox="40.998207092285156 22.899999618530273 18.003585815429688 54" enable-background="new 0 0 100 100" xml:space="preserve" height="84.85701818181816" width="28.291307571811863" class="icon-icon-0" data-fill-palette-color="accent" id="icon-0"><path d="M42.1 36.3c-0.7-1.3-1.1-2.7-1.1-4.3-0.1-5 4-9.1 9-9.1 5 0 9.1 4.1 9 9.1 0 1.5-0.4 3-1.1 4.3-1.4 2.6-2.4 5.3-2.8 8.2-0.3 1.8-0.4 3.6-0.4 5.4 0 1.8 0.1 3.6 0.4 5.4 0.4 2.9 1.4 5.7 2.8 8.2 0.7 1.3 1.1 2.7 1.1 4.3 0.1 5-4 9.1-9 9.1-5 0-9.1-4.1-9-9.1 0-1.5 0.4-3 1.1-4.3 1.4-2.6 2.4-5.3 2.8-8.2 0.3-1.8 0.4-3.6 0.4-5.4 0-1.8-0.1-3.6-0.4-5.4C44.5 41.7 43.5 38.9 42.1 36.3z" fill="#ffffff" data-fill-palette-color="accent"></path></svg></g></svg></g></svg></g></svg><rect width="395.52" height="72.06393072699146" fill="none" stroke="none" visibility="hidden"></rect></g></svg></g></svg>